<?xml version="1.0" encoding="UTF-8"?>
<svg width="256px" height="256px" viewBox="0 0 256 256" version="1.1" xmlns="http://www.w3.org/2000/svg" xmlns:xlink="http://www.w3.org/1999/xlink">
  <title>Demo</title>
  <desc>Demo SVG</desc>
  <defs></defs>
  <g id="page" stroke="none" stroke-width="1" fill="none" fill-rule="evenodd">
    <g id="domain">
      <path
        d="M15.645276,80.5 C69.645276,26.5 177.645276,26.5 231.645276,80.5 C285.645276,134.5 222.75043,177.228847 168.574704,231.404574 C114.398977,285.580301 127.781464,188.706487 94.9646224,156.324155 C62.1477809,123.941823 -38.354724,134.5 15.645276,80.5 Z"
        id="Rectangle-3"
        fill="#ABCDEF"></path>
      <g id="003-puzzle" transform="translate(20.000000, 20.000000)" fill="#AAAAAA" fill-rule="nonzero">
        <path
          d="M197.015625,0 C194.19075,0 21.80925,0 18.984375,0 C8.51639062,0 0,8.51639062 0,18.984375 C0,21.80925 0,194.19075 0,197.015625 C0,207.483609 8.51639062,216 18.984375,216 C21.80925,216 194.19075,216 197.015625,216 C207.483609,216 216,207.483609 216,197.015625 C216,194.19075 216,21.80925 216,18.984375 C216,8.51639062 207.483609,0 197.015625,0 Z M12.65625,18.984375 C12.65625,15.4950469 15.4950469,12.65625 18.984375,12.65625 L101.671875,12.65625 L101.671875,32.8619531 C99.6211406,32.3346094 97.497,32.0625 95.34375,32.0625 C81.3864375,32.0625 70.03125,43.4176875 70.03125,57.375 C70.03125,71.3323125 81.3864375,82.6875 95.34375,82.6875 C97.497,82.6875 99.6211406,82.4149687 101.671875,81.8880469 L101.671875,101.671875 C97.3598906,101.671875 75.8505938,101.671875 71.55,101.671875 C66.106125,101.671875 63.2065781,108.138375 66.8207812,112.204406 C68.8909219,114.533578 70.03125,117.535219 70.03125,120.65625 C70.03125,127.634906 64.3536563,133.3125 57.375,133.3125 C50.3963437,133.3125 44.71875,127.634906 44.71875,120.65625 C44.71875,117.535219 45.8590781,114.533156 47.9292187,112.204406 C51.5079844,108.178453 48.7122187,101.671875 43.2,101.671875 L12.65625,101.671875 L12.65625,18.984375 Z M101.671875,172.8 L101.671875,203.34375 L18.984375,203.34375 C15.4950469,203.34375 12.65625,200.504953 12.65625,197.015625 L12.65625,114.285937 L32.8619531,114.285937 C32.3346094,116.336672 32.0625,118.503 32.0625,120.65625 C32.0625,134.613563 43.4176875,145.96875 57.375,145.96875 C71.3323125,145.96875 82.6875,134.613563 82.6875,120.65625 C82.6875,118.503 82.4149687,116.378859 81.8880469,114.328125 L101.671875,114.328125 C101.671875,118.640109 101.671875,140.149406 101.671875,144.45 C101.671875,149.974875 108.194062,152.74575 112.203984,149.180062 C114.56775,147.079125 117.490078,145.96875 120.65625,145.96875 C127.634906,145.96875 133.3125,151.646344 133.3125,158.625 C133.3125,165.603656 127.634906,171.28125 120.65625,171.28125 C117.4905,171.28125 114.56775,170.170875 112.203984,168.069937 C108.181828,164.495812 101.671875,167.284406 101.671875,172.8 Z M203.34375,197.015625 C203.34375,200.504953 200.504953,203.34375 197.015625,203.34375 L114.328125,203.34375 L114.328125,183.137625 C116.378859,183.664969 118.503,183.9375 120.65625,183.9375 C134.613563,183.9375 145.96875,172.582313 145.96875,158.625 C145.96875,144.667687 134.613563,133.3125 120.65625,133.3125 C118.503,133.3125 116.378859,133.584609 114.328125,134.111953 L114.328125,114.328125 L144.45,114.328125 C149.814141,114.328125 152.859656,107.932922 149.179641,103.796016 C147.079125,101.432672 145.96875,98.5095 145.96875,95.34375 C145.96875,88.3650937 151.646344,82.6875 158.625,82.6875 C165.603656,82.6875 171.28125,88.3650937 171.28125,95.34375 C171.28125,98.5095 170.170875,101.432672 168.070359,103.796016 C164.398359,107.923641 167.432906,114.328125 172.8,114.328125 L203.34375,114.328125 L203.34375,197.015625 Z M203.34375,101.671875 L183.137625,101.671875 C183.664969,99.6211406 183.9375,97.4965781 183.9375,95.34375 C183.9375,81.3864375 172.582313,70.03125 158.625,70.03125 C144.667687,70.03125 133.3125,81.3864375 133.3125,95.34375 C133.3125,97.4965781 133.585031,99.6211406 134.112375,101.671875 L114.328125,101.671875 L114.328125,71.55 C114.328125,66.1824844 107.931656,63.14625 103.795594,66.8207812 C101.466422,68.8909219 98.4647813,70.03125 95.34375,70.03125 C88.3650937,70.03125 82.6875,64.3536563 82.6875,57.375 C82.6875,50.3963437 88.3650937,44.71875 95.34375,44.71875 C98.4647813,44.71875 101.466844,45.8590781 103.795594,47.9292187 C107.913094,51.5889844 114.328125,48.5835469 114.328125,43.2 L114.328125,12.65625 L197.015625,12.65625 C200.504953,12.65625 203.34375,15.4950469 203.34375,18.984375 L203.34375,101.671875 Z"
          id="Shape"></path>
      </g>
    </g>
  </g>
</svg>
